#!OML:ASF F:\twosubjects\two\Thursday\Session 1\Rory.ASF
:FULLY-SPECIFIED
:DEGREES
209
root 9.46813 19.9262 11.137 82.119 -92.0689 -79.2192
lowerback 0.140115 -2.1406 -1.64395
upperback -1.95712 -2.89814 -0.313069
thorax -2.01962 -1.4293 0.652295
lowerneck -9.44216 -7.23513 -6.71881
upperneck 12.7328 -10.5099 10.1215
head 6.31185 -4.79215 3.37578
rclavicle -9.66746e-015 -1.46604e-014
rhumerus 0.395918 -33.4236 -5.45126
rradius 51.8143
rwrist -9.12839
rhand -29.8385 27.3569
rfingers 7.12502
rthumb -3.1615 -2.59945
lclavicle -9.66746e-015 -1.46604e-014
lhumerus -8.07911 13.4776 -2.87932
lradius 60.1547
lwrist 20.0395
lhand -13.2808 36.0288
lfingers 7.12502
lthumb 12.8226 65.615
rfemur -14.4708 17.2384 2.34955
rtibia 32.6347
rfoot -4.47879 3.51407
rtoes -27.9755
lfemur -7.49903 -8.13227 -6.20799
ltibia 25.896
lfoot 1.46187 12.6633
ltoes -5.21903
210
root 9.49201 20.022 11.177 85.6091 -92.3312 -82.6246
lowerback 0.234478 -2.20252 -1.6495
upperback -1.91723 -2.98659 -0.520009
thorax -2.04044 -1.47551 0.448371
lowerneck -9.50989 -7.25321 -6.74144
upperneck 12.4677 -10.5088 10.2053
head 6.24616 -4.7882 3.40546
rclavicle -4.45782e-014 -9.44227e-015
rhumerus -1.60591 -32.7024 -6.73412
rradius 51.0599
rwrist -9.22272
rhand -29.7903 26.946
rfingers 7.12502
rthumb -3.11495 -3.01104
lclavicle -4.45782e-014 -9.44227e-015
lhumerus -9.92965 12.1933 -1.44208
lradius 59.4461
lwrist 19.9885
lhand -13.107 35.5196
lfingers 7.12502
lthumb 12.9901 65.0952
rfemur -14.7387 16.3645 3.06608
rtibia 33.145
rfoot -4.44605 3.13937
rtoes -28.7005
lfemur -8.06989 -7.28901 -7.163
ltibia 26.7326
lfoot 0.476915 12.4658
ltoes -3.31871
211
root 9.51449 20.1142 11.2058 80.6201 -92.4995 -77.5573
lowerback 0.285384 -2.2693 -1.80661
upperback -1.84893 -3.07652 -0.495327
thorax -1.98772 -1.51792 0.563003
lowerneck -9.82741 -7.18655 -6.94318
upperneck 12.5081 -10.3657 10.2042
head 6.31149 -4.71427 3.44184
rclavicle -1.76266e-016 -2.08724e-015
rhumerus -3.08495 -31.9363 -8.12489
rradius 50.3226
rwrist -9.55697
rhand -29.4684 26.5571
rfingers 7.12502
rthumb -2.80409 -3.40417
lclavicle -1.76266e-016 -2.08724e-015
lhumerus -12.209 11.1646 0.089647
lradius 58.7401
lwrist 19.8304
lhand -12.8133 35.2287
lfingers 7.12502
lthumb 13.2731 64.7861
rfemur -15.1354 15.7123 3.96493
rtibia 33.7237
rfoot -4.42485 2.68206
rtoes -27.6751
lfemur -8.52375 -6.22687 -7.98518
ltibia 27.5439
lfoot -0.227462 12.0656
ltoes -3.15714
212
root 9.54072 20.1891 11.2439 80.0171 -92.4522 -76.9449
lowerback 0.401554 -2.25975 -1.65756
upperback -1.76231 -3.06166 -0.504691
thorax -1.97234 -1.51289 0.47312
lowerneck -10.2038 -7.27696 -7.40785
upperneck 12.7538 -10.4511 10.4106
head 6.49838 -4.74387 3.55916
rclavicle -3.01613e-015 -2.48481e-016
rhumerus -5.19635 -31.1222 -9.06138
rradius 49.7567
rwrist -10.0597
rhand -30.0349 27.4402
rfingers 7.12502
rthumb -3.3512 -2.51323
lclavicle -3.01613e-015 -2.48481e-016
lhumerus -13.931 10.3368 1.99288
lradius 58.0069
lwrist 19.6375
lhand -12.4495 35.6575
lfingers 7.12502
lthumb 13.6238 65.1917
rfemur -15.4357 14.8043 5.13868
rtibia 34.3966
rfoot -4.76599 2.26416
rtoes -28.3933
lfemur -8.93363 -5.30977 -8.61608
ltibia 28.2338
lfoot -0.554495 11.2756
ltoes -4.36109
213
root 9.56972 20.2516 11.2845 82.4121 -92.6312 -79.3838
lowerback 0.608548 -2.27321 -1.70446
upperback -1.68713 -3.08491 -0.595924
thorax -2.01349 -1.52414 0.413672
lowerneck -10.2577 -7.37731 -7.62102
upperneck 12.5718 -10.5116 10.3411
head 6.46327 -4.78574 3.56353
rclavicle -1.18147e-014 8.29926e-015
rhumerus -6.91574 -30.8363 -10.2903
rradius 48.8579
rwrist -9.38769
rhand -30.1349 28.0694
rfingers 7.12502
rthumb -3.44771 -1.88247
lclavicle -1.18147e-014 8.29926e-015
lhumerus -15.6337 9.39494 3.99019
lradius 57.344
lwrist 19.6417
lhand -12.3806 36.0011
lfingers 7.12502
lthumb 13.6903 65.5308
rfemur -15.7099 13.9831 5.9951
rtibia 35.1161
rfoot -5.0449 2.24701
rtoes -28.7169
lfemur -9.22957 -4.70434 -9.52461
ltibia 28.8674
lfoot -0.976314 10.1919
ltoes -6.43215
214
root 9.59878 20.3032 11.3114 77.5607 -93.2631 -74.6401
lowerback 0.908769 -2.32202 -2.35875
upperback -1.65512 -3.17135 -0.657755
thorax -2.11664 -1.55632 0.728975
lowerneck -10.0086 -7.26345 -7.62305
upperneck 12.0783 -10.2571 10.0302
head 6.22307 -4.69647 3.50351
rclavicle -4.84048e-014 -1.42131e-014
rhumerus -7.75316 -30.8846 -12.2221
rradius 47.8412
rwrist -8.41293
rhand -30.0097 28.499
rfingers 7.12502
rthumb -3.32679 -1.45481
lclavicle -4.84048e-014 -1.42131e-014
lhumerus -18.0124 8.66265 5.81097
lradius 56.7932
lwrist 19.5725
lhand -12.0836 35.6797
lfingers 7.12502
lthumb 13.9764 65.1899
rfemur -16.0943 13.4451 6.4131
rtibia 35.8633
rfoot -4.95729 2.81067
rtoes -27.75
lfemur -9.2795 -4.07464 -10.8027
ltibia 29.4596
lfoot -1.49604 9.14402
ltoes -6.25842
215
root 9.62751 20.3389 11.3428 73.1852 -94.0002 -70.3675
lowerback 1.11031 -2.36305 -3.06022
upperback -1.58207 -3.24991 -0.775748
thorax -2.12179 -1.58599 1.00735
lowerneck -9.87561 -6.98798 -7.94232
upperneck 11.8099 -9.83807 10.2291
head 6.10336 -4.50145 3.66818
rclavicle 2.52161e-014 -2.68359e-015
rhumerus -8.6901 -30.8861 -14.3073
rradius 47.0854
rwrist -7.96885
rhand -30.538 29.1958
rfingers 7.12502
rthumb -3.83699 -0.749412
lclavicle 2.52161e-014 -2.68359e-015
lhumerus -20.3922 8.12221 7.5082
lradius 56.2714
lwrist 19.4179
lhand -11.6912 35.4222
lfingers 7.12502
lthumb 14.3546 64.9059
rfemur -16.5404 12.6287 6.75134
rtibia 36.6221
rfoot -4.86756 3.86471
rtoes -27.7301
lfemur -9.31193 -3.43052 -12.1302
ltibia 29.9981
lfoot -1.70773 7.84038
ltoes -4.80772
216
root 9.65426 20.3633 11.3826 73.6097 -94.4976 -70.7729
lowerback 1.10327 -2.41094 -3.40191
upperback -1.47154 -3.32484 -1.00847
thorax -1.99648 -1.62401 0.957375
lowerneck -10.0856 -6.87124 -8.17328
upperneck 11.8832 -9.66948 10.4576
head 6.16975 -4.40657 3.78955
rclavicle 5.50665e-014 1.08338e-014
rhumerus -10.1405 -30.3289 -16.0353
rradius 46.2343
rwrist -8.0666
rhand -30.526 28.9911
rfingers 7.12502
rthumb -3.82542 -0.954299
lclavicle 5.50665e-014 1.08338e-014
lhumerus -22.2435 7.70069 9.2913
lradius 55.5775
lwrist 19.2347
lhand -11.9539 35.4199
lfingers 7.12502
lthumb 14.1014 64.9215
rfemur -16.9833 11.5687 7.24331
rtibia 37.3798
rfoot -4.92439 4.8367
rtoes -27.2238
lfemur -9.59113 -2.91861 -13.2723
ltibia 30.5644
lfoot -1.72637 6.03527
ltoes -4.99276
217
root 9.68372 20.3818 11.422 73.6178 -94.7735 -70.5885
lowerback 0.982316 -2.34204 -3.42141
upperback -1.3927 -3.23219 -1.23014
thorax -1.86303 -1.5833 0.731685
lowerneck -10.5808 -6.96066 -8.11116
upperneck 12.247 -9.78435 10.3454
head 6.37208 -4.44457 3.71534
rclavicle 4.16244e-014 1.27719e-014
rhumerus -12.0458 -29.7552 -17.4485
rradius 45.5284
rwrist -8.55486
rhand -30.0641 29.0254
rfingers 7.12502
rthumb -3.37935 -0.927525
lclavicle 4.16244e-014 1.27719e-014
lhumerus -23.4982 8.16248 11.2924
lradius 54.3918
lwrist 18.4913
lhand -11.9526 35.1219
lfingers 7.12502
lthumb 14.1027 64.6233
rfemur -17.5515 10.8536 7.91314
rtibia 38.1167
rfoot -4.87377 5.5529
rtoes -23.2043
lfemur -10.1226 -2.50589 -14.1412
ltibia 31.2504
lfoot -1.68568 3.98635
ltoes -6.91076
218
root 9.71331 20.3807 11.4576 70.8962 -94.9213 -67.5536
lowerback 0.695012 -2.08901 -3.31226
upperback -1.31076 -2.88201 -1.40806
thorax -1.64464 -1.41628 0.467918
lowerneck -10.9882 -7.12046 -8.01921
upperneck 12.5027 -10.0281 10.403
head 6.54596 -4.5368 3.67885
rclavicle -1.56287e-014 -1.68222e-014
rhumerus -14.3991 -29.7799 -18.5905
rradius 45.0041
rwrist -8.7575
rhand -29.3032 29.2075
rfingers 7.12502
rthumb -2.6445 -0.755821
lclavicle -1.56287e-014 -1.68222e-014
lhumerus -24.3101 8.87915 13.524
lradius 53.1896
lwrist 17.5623
lhand -11.4158 34.7067
lfingers 7.12502
lthumb 14.6199 64.1713
rfemur -18.2398 10.8479 8.77366
rtibia 38.8153
rfoot -5.16887 6.016
rtoes -18.2628
lfemur -10.7609 -1.95875 -14.7682
ltibia 32.001
lfoot -1.60967 1.70992
ltoes -8.7961
219
root 9.73969 20.358 11.4929 68.6187 -95.3015 -65.0537
lowerback 0.455326 -1.88153 -3.57758
upperback -1.226 -2.59821 -1.51081
thorax -1.42548 -1.27689 0.494792
lowerneck -11.2109 -7.23179 -8.15025
upperneck 12.5524 -10.1721 10.5503
head 6.62959 -4.5928 3.72394
rclavicle -7.29136e-016 7.47927e-015
rhumerus -16.3072 -29.7201 -19.8692
rradius 44.2341
rwrist -8.88927
rhand -29.6086 30.2082
rfingers 7.12502
rthumb -2.93944 0.248707
lclavicle -7.29136e-016 7.47927e-015
lhumerus -25.5307 8.96569 15.8812
lradius 52.2829
lwrist 16.9222
lhand -10.967 34.5067
lfingers 7.12502
lthumb 15.0523 63.9395
rfemur -18.8079 10.7902 9.41684
rtibia 39.4928
rfoot -5.35686 6.79914
rtoes -14.6454
lfemur -11.2666 -1.31296 -15.6465
ltibia 32.7341
lfoot -1.47763 -0.438373
ltoes -9.67281
220
root 9.76497 20.3368 11.5354 68.0543 -95.6115 -64.3822
lowerback 0.442063 -1.91975 -3.78162
upperback -1.19093 -2.64901 -1.47275
thorax -1.36963 -1.30083 0.646518
lowerneck -11.4612 -7.17432 -8.4699
upperneck 12.6866 -10.0166 10.4981
head 6.71359 -4.52342 3.76872
rclavicle -3.45237e-014 -1.00883e-014
rhumerus -17.3612 -29.3557 -21.6822
rradius 43.6028
rwrist -9.28773
rhand -30.0739 29.4891
rfingers 7.12502
rthumb -3.38884 -0.463682
lclavicle -3.45237e-014 -1.00883e-014
lhumerus -27.4315 9.13334 18.0423
lradius 51.4066
lwrist 16.4022
lhand -10.799 34.5125
lfingers 7.12502
lthumb 15.2141 63.9331
rfemur -19.2624 9.84205 10.034
rtibia 40.177
rfoot -5.06733 8.33153
rtoes -18.5371
lfemur -11.7204 -0.788498 -16.5298
ltibia 33.5496
lfoot -1.33697 -2.37035
ltoes -9.7608
221
root 9.78843 20.3111 11.5769 67.0264 -95.6912 -63.2114
lowerback 0.46945 -1.96862 -3.62478
upperback -1.20087 -2.71516 -1.51815
thorax -1.40188 -1.33553 0.514962
lowerneck -11.6421 -7.05575 -8.34799
upperneck 12.709 -9.82928 10.3175
head 6.71739 -4.43303 3.70722
rclavicle 2.81288e-016 -1.61202e-014
rhumerus -18.5188 -29.4158 -23.6555
rradius 42.873
rwrist -8.96672
rhand -30.4238 29.4788
rfingers 7.12502
rthumb -3.72668 -0.468363
lclavicle 2.81288e-016 -1.61202e-014
lhumerus -29.1162 9.5242 19.9145
lradius 50.4424
lwrist 15.7578
lhand -10.6318 34.6184
lfingers 7.12502
lthumb 15.3751 64.0268
rfemur -19.7721 8.90494 10.895
rtibia 40.9065
rfoot -4.86608 9.70052
rtoes -18.5079
lfemur -12.2306 -0.272566 -17.0976
ltibia 34.4461
lfoot -1.33798 -4.34008
ltoes -8.03075
222
root 9.82039 20.2422 11.6172 64.974 -95.9652 -61.0887
lowerback 0.608431 -1.88117 -3.67226
upperback -1.19515 -2.60998 -1.63804
thorax -1.48134 -1.2829 0.422481
lowerneck -11.6673 -6.94641 -7.9882
upperneck 12.5405 -9.69013 10.1246
head 6.62641 -4.36439 3.60281
rclavicle 2.02054e-014 3.62782e-015
rhumerus -19.7971 -29.8357 -25.4199
rradius 42.0299
rwrist -8.61091
rhand -30.468 29.9489
rfingers 7.12502
rthumb -3.76941 0.00249639
lclavicle 2.02054e-014 3.62782e-015
lhumerus -30.4622 10.0141 21.8397
lradius 49.3842
lwrist 15.2043
lhand -10.3223 34.6045
lfingers 7.12502
lthumb 15.6732 63.9897
rfemur -20.2214 8.28621 11.688
rtibia 41.6937
rfoot -4.70895 10.6128
rtoes -18.6547
lfemur -12.6342 0.443687 -17.7488
ltibia 35.3021
lfoot -1.06259 -6.20739
ltoes -6.11405
